<svg xmlns="http://www.w3.org/2000/svg" xmlns:xlink="http://www.w3.org/1999/xlink" viewBox="283 93 360 710">
  <defs>
    <style>
      .cls-1 {
        fill: none;
      }
      .cls-2 {
        isolation: isolate;
      }
      .cls-3 {
        fill: #232322;
      }
      .cls-4 {
        fill: #c3c1c0;
      }
      .cls-5 {
        fill: #373533;
      }
      .cls-6 {
        fill: #555656;
      }
      .cls-7 {
        fill: #0d0d0d;
      }
      .cls-8 {
        fill: url(#linear-gradient);
      }
      .cls-9 {
        opacity: 0.5;
        mix-blend-mode: darken;
      }
      .cls-10 {
        clip-path: url(#clip-path);
      }
      .cls-11 {
        fill: #020202;
      }
      .cls-12 {
        fill: url(#radial-gradient);
      }
      .cls-13 {
        fill: #151515;
        opacity: 0.56;
      }
    </style>
    <linearGradient id="linear-gradient" x1="183.21" y1="820.28" x2="729.4" y2="100.98" gradientUnits="userSpaceOnUse">
      <stop offset="0" stop-color="#e2abce"/>
      <stop offset="0.32" stop-color="#70408c"/>
      <stop offset="0.61" stop-color="#402d7c"/>
      <stop offset="0.97" stop-color="#0b0b0f"/>
    </linearGradient>
    <clipPath id="clip-path" transform="translate(284.68 91.51)">
      <rect id="for_masking" data-name="for masking" class="cls-1" x="24.5" y="22.9" width="308.86" height="673.2" rx="32.43"/>
    </clipPath>
    <radialGradient id="radial-gradient" cx="495.56" cy="135.85" r="9.8" xlink:href="#linear-gradient"/>
  </defs>
  <g class="cls-2">
    <g id="Layer_1" data-name="Layer 1">
      <g id="screens">
        <rect id="s6" class="cls-3" x="292.93" y="98.49" width="340.84" height="704.43" rx="43.66"/>
        <rect id="s5" class="cls-4" x="294.01" y="99.67" width="338.67" height="702.06" rx="43.66"/>
        <rect id="s4" class="cls-5" x="294.78" y="100.32" width="337.13" height="700.77" rx="43.66"/>
        <g id="signal_bars" data-name="signal bars">
          <rect class="cls-6" x="547.29" y="100.32" width="6.89" height="8.37"/>
          <rect class="cls-6" x="626.21" y="202.89" width="7.08" height="7.08"/>
          <rect class="cls-6" x="293.41" y="202.48" width="7.08" height="7.08"/>
        </g>
        <rect id="s3" class="cls-7" x="297.67" y="103.99" width="330.78" height="693.82" rx="40.94"/>
        <rect id="s2" class="cls-8" x="309.18" y="114.41" width="308.86" height="673.2" rx="32.43"/>
        <g id="s1" class="cls-9">
          <image width="1588" height="3106" transform="translate(273.14 78.31) scale(0.24)" xlink:href=""/>
        </g>
      </g>
      <g class="cls-10">
        <image width="1600" height="1200" transform="scale(0.85)" xlink:href=""/>
      </g>
      <g id="island">
        <rect class="cls-11" x="407.95" y="121.96" width="111.45" height="27.77" rx="11.57"/>
        <circle class="cls-12" cx="495.56" cy="135.85" r="9.8"/>
        <circle class="cls-13" cx="495.56" cy="135.85" r="9.8"/>
      </g>
      <g id="side_buttons" data-name="side buttons">
        <path class="cls-7" d="M633.27,294h1.9a3.91,3.91,0,0,1,3.91,3.91v90.79a3.91,3.91,0,0,1-3.91,3.91h-1.9a0,0,0,0,1,0,0V294A0,0,0,0,1,633.27,294Z"/>
        <path class="cls-7" d="M3.13,287.58H5.67a2.66,2.66,0,0,1,2.66,2.66v44.1A2.66,2.66,0,0,1,5.67,337H3.13a0,0,0,0,1,0,0V287.58a0,0,0,0,1,0,0Z" transform="translate(296.14 716.1) rotate(180)"/>
        <path class="cls-7" d="M3.13,225.71H5.67a2.66,2.66,0,0,1,2.66,2.66v44.1a2.66,2.66,0,0,1-2.66,2.66H3.13a0,0,0,0,1,0,0V225.71A0,0,0,0,1,3.13,225.71Z" transform="translate(296.14 592.36) rotate(180)"/>
        <path class="cls-7" d="M3.13,165.94H5.67a2.66,2.66,0,0,1,2.66,2.66v27.1a2.66,2.66,0,0,1-2.66,2.66H3.13a0,0,0,0,1,0,0V165.94A0,0,0,0,1,3.13,165.94Z" transform="translate(296.14 455.81) rotate(180)"/>
      </g>
    </g>
  </g>
</svg>
